<svg width="39" height="34" viewBox="0 0 39 34" fill="none" xmlns="http://www.w3.org/2000/svg">
<path d="M35.3517 20.0095L38.4909 6.19696C38.7176 5.19967 37.9595 4.25 36.9368 4.25H10.8537L10.245 1.27434C10.0933 0.532644 9.44066 0 8.68356 0H1.875C0.994785 0 0.28125 0.713535 0.28125 1.59375V2.65625C0.28125 3.53646 0.994785 4.25 1.875 4.25H6.51567L11.1806 27.0562C10.0645 27.698 9.3125 28.9015 9.3125 30.2812C9.3125 32.3351 10.9774 34 13.0312 34C15.0851 34 16.75 32.3351 16.75 30.2812C16.75 29.2404 16.3219 28.3 15.6328 27.625H29.5546C28.8656 28.3 28.4375 29.2404 28.4375 30.2812C28.4375 32.3351 30.1024 34 32.1562 34C34.2101 34 35.875 32.3351 35.875 30.2812C35.875 28.8089 35.0191 27.5365 33.7779 26.934L34.1443 25.322C34.371 24.3247 33.6129 23.375 32.5902 23.375H14.7656L14.3309 21.25H33.7976C34.5418 21.25 35.1868 20.7351 35.3517 20.0095Z" fill="#C71D1D"/>
</svg>
