<svg width="145" height="66" viewBox="0 0 145 66" fill="none" xmlns="http://www.w3.org/2000/svg">
<path d="M61.6432 26.277V8.28127H73.9275V11.8136H65.9928V15.5042H73.1454V19.0453H65.9928V26.277H61.6432ZM80.4672 8.28127V26.277H76.1176V8.28127H80.4672ZM83.1977 26.277V8.28127H90.6315C91.9789 8.28127 93.1417 8.52437 94.12 9.01059C95.1041 9.49094 95.8627 10.1822 96.3958 11.0843C96.9289 11.9806 97.1954 13.0438 97.1954 14.274C97.1954 15.5218 96.923 16.5821 96.3782 17.4549C95.8334 18.3219 95.0602 18.9838 94.0585 19.4408C93.0568 19.8918 91.8705 20.1174 90.4997 20.1174H85.7987V16.6904H89.6913C90.3474 16.6904 90.8952 16.6055 91.3345 16.4356C91.7797 16.2599 92.1165 15.9963 92.345 15.6448C92.5735 15.2874 92.6877 14.8305 92.6877 14.274C92.6877 13.7175 92.5735 13.2576 92.345 12.8944C92.1165 12.5254 91.7797 12.2501 91.3345 12.0685C90.8893 11.881 90.3416 11.7873 89.6913 11.7873H87.5473V26.277H83.1977ZM93.3292 18.0524L97.8105 26.277H93.0655L88.672 18.0524H93.3292ZM99.5811 26.277V8.28127H112.129V11.8136H103.931V15.5042H111.487V19.0453H103.931V22.7447H112.129V26.277H99.5811ZM71.3704 43.6765C71.3119 43.0321 71.0512 42.5312 70.5884 42.1739C70.1315 41.8107 69.4783 41.6291 68.6289 41.6291C68.0665 41.6291 67.5979 41.7023 67.223 41.8488C66.8481 41.9952 66.5669 42.1973 66.3794 42.4551C66.192 42.707 66.0953 42.997 66.0895 43.325C66.0777 43.5945 66.1305 43.8317 66.2476 44.0367C66.3706 44.2418 66.5464 44.4234 66.7748 44.5815C67.0092 44.7339 67.2903 44.8686 67.6184 44.9857C67.9464 45.1029 68.3155 45.2054 68.7256 45.2933L70.2721 45.6448C71.1625 45.8381 71.9475 46.0958 72.627 46.418C73.3124 46.7402 73.8865 47.1239 74.3492 47.5691C74.8179 48.0143 75.1723 48.5269 75.4125 49.1068C75.6526 49.6868 75.7757 50.337 75.7815 51.0576C75.7757 52.194 75.4886 53.1694 74.9204 53.9836C74.3522 54.7979 73.535 55.4218 72.4688 55.8553C71.4085 56.2888 70.1285 56.5055 68.6289 56.5055C67.1234 56.5055 65.8112 56.28 64.6923 55.8289C63.5734 55.3778 62.7035 54.6924 62.0826 53.7727C61.4616 52.853 61.1424 51.6902 61.1248 50.2843H65.2898C65.325 50.8642 65.4802 51.3475 65.7555 51.7342C66.0309 52.1208 66.4087 52.4137 66.8891 52.6129C67.3753 52.812 67.9377 52.9116 68.5762 52.9116C69.162 52.9116 69.6599 52.8325 70.07 52.6744C70.4859 52.5162 70.8051 52.2965 71.0277 52.0153C71.2504 51.7342 71.3646 51.412 71.3704 51.0488C71.3646 50.709 71.2591 50.419 71.0541 50.1789C70.8491 49.9328 70.5327 49.7219 70.1051 49.5462C69.6833 49.3646 69.1444 49.1976 68.4883 49.0453L66.6079 48.606C65.0497 48.2487 63.8224 47.6716 62.9261 46.875C62.0299 46.0724 61.5847 44.9887 61.5905 43.6238C61.5847 42.5107 61.8834 41.5354 62.4868 40.6977C63.0902 39.86 63.9249 39.2068 64.9911 38.7382C66.0572 38.2696 67.2728 38.0352 68.6377 38.0352C70.0319 38.0352 71.2416 38.2725 72.2667 38.747C73.2977 39.2156 74.0973 39.8746 74.6656 40.7241C75.2338 41.5735 75.5238 42.5576 75.5355 43.6765H71.3704ZM77.3895 41.8136V38.2813H92.5998V41.8136H87.1431V56.277H82.855V41.8136H77.3895ZM110.888 47.2792C110.888 49.2592 110.507 50.9375 109.745 52.3141C108.984 53.6907 107.953 54.7364 106.652 55.4511C105.358 56.1657 103.905 56.5231 102.294 56.5231C100.677 56.5231 99.2216 56.1628 97.9269 55.4423C96.6323 54.7217 95.6042 53.6761 94.8427 52.3053C94.087 50.9287 93.7092 49.2533 93.7092 47.2792C93.7092 45.2991 94.087 43.6208 94.8427 42.2442C95.6042 40.8676 96.6323 39.8219 97.9269 39.1072C99.2216 38.3926 100.677 38.0352 102.294 38.0352C103.905 38.0352 105.358 38.3926 106.652 39.1072C107.953 39.8219 108.984 40.8676 109.745 42.2442C110.507 43.6208 110.888 45.2991 110.888 47.2792ZM106.442 47.2792C106.442 46.1076 106.275 45.1176 105.941 44.3091C105.613 43.5007 105.138 42.8886 104.517 42.4727C103.902 42.0567 103.161 41.8488 102.294 41.8488C101.433 41.8488 100.692 42.0567 100.071 42.4727C99.45 42.8886 98.9726 43.5007 98.6387 44.3091C98.3106 45.1176 98.1466 46.1076 98.1466 47.2792C98.1466 48.4508 98.3106 49.4408 98.6387 50.2492C98.9726 51.0576 99.45 51.6697 100.071 52.0856C100.692 52.5016 101.433 52.7095 102.294 52.7095C103.161 52.7095 103.902 52.5016 104.517 52.0856C105.138 51.6697 105.613 51.0576 105.941 50.2492C106.275 49.4408 106.442 48.4508 106.442 47.2792ZM113.427 56.277V38.2813H120.861C122.208 38.2813 123.371 38.5244 124.349 39.0106C125.334 39.4909 126.092 40.1822 126.625 41.0843C127.158 41.9806 127.425 43.0438 127.425 44.274C127.425 45.5218 127.153 46.5821 126.608 47.4549C126.063 48.3219 125.29 48.9838 124.288 49.4408C123.286 49.8918 122.1 50.1174 120.729 50.1174H116.028V46.6904H119.921C120.577 46.6904 121.125 46.6055 121.564 46.4356C122.009 46.2599 122.346 45.9963 122.574 45.6448C122.803 45.2874 122.917 44.8305 122.917 44.274C122.917 43.7175 122.803 43.2576 122.574 42.8944C122.346 42.5254 122.009 42.2501 121.564 42.0685C121.119 41.881 120.571 41.7873 119.921 41.7873H117.777V56.277H113.427ZM123.559 48.0524L128.04 56.277H123.295L118.902 48.0524H123.559ZM129.811 56.277V38.2813H142.358V41.8136H134.16V45.5042H141.717V49.0453H134.16V52.7447H142.358V56.277H129.811Z" fill="#C71D1D"/>
<path d="M46.2642 14.2713C43.5764 15.6919 41.0701 17.271 38.7829 18.9187C37.003 14.2766 34.5612 9.39734 31.5848 4.65874C18.8875 11.3693 8.3758 21.7292 6.38918 29.1434C2.86046 42.3127 10.3793 55.769 23.1823 59.1996C35.9853 62.6301 49.2249 54.736 52.7536 41.5667C54.2308 36.0537 51.8981 23.2415 46.2642 14.2713ZM34.8028 48.986C32.1407 49.9543 29.1272 50.144 26.1404 49.3437C18.6734 47.3429 13.9213 40.7741 16.0707 32.7525C17.1414 28.7566 20.6006 25.91 27.2296 21.2394C27.7256 22.2574 33.982 36.9517 33.982 36.9517L41.9044 31.656C42.1429 32.4797 42.3472 33.2777 42.5169 34.0352C43.9002 40.1949 40.854 46.7861 34.8028 48.986Z" fill="#C71D1D"/>
</svg>
